# xmcd
#
# Track frame offsets:
#	150
#	12626
#	24447
#	37879
#	49908
#	63372
#	74470
#	87171
#	101546
#	112222
#	126040
#	137190
#	148387
#	159598
#
# Disc length: 2263 seconds
#
# Revision: 1
# Processed by: cddbd v1.5.2PL0 Copyright (c) Steve Scherf et al.
# Submitted via: audiograbber 1.83.01
#
DISCID=cc08d50e
DTITLE=Hank Snow - Favorites
DYEAR=1900
DGENRE=Country
TTITLE0=Lonesome Blue Yodel
TTITLE1=There's A Picture On Pinto's Bridle
TTITLE2=The Hobo's Last Ride
TTITLE3=Wanderin' On
TTITLE4=When My Blue Moon Turns To Gold Again
TTITLE5=My Filipino Rose
TTITLE6=I Wonder Where You Are Tonight
TTITLE7=On The Old Hawaiian Shore With You
TTITLE8=He'll Understandand Say Well Done
TTITLE9=Anniversary Blue Yodel (Blue Yodel No.7)
TTITLE10=Mississippi River Blues
TTITLE11=Twelfth Street Rag
TTITLE12=Caribbean
TTITLE13=Can't Have You Blues
EXTD=
EXTT0=
EXTT1=
EXTT2=
EXTT3=
EXTT4=
EXTT5=
EXTT6=
EXTT7=
EXTT8=
EXTT9=
EXTT10=
EXTT11=
EXTT12=
EXTT13=
PLAYORDER=
